<svg height="512pt" viewBox="-68 0 512 512" width="512pt" xmlns="http://www.w3.org/2000/svg"><path d="m368 0h-320c-26.464844 0-48 21.53125-48 48v416c0 4.417969 3.582031 8 8 8h360c4.417969 0 8-3.582031 8-8v-456c0-4.417969-3.582031-8-8-8zm0 0" fill="#e99695"/><path d="m80 0h-32c-26.507812 0-48 21.488281-48 48v416c0 4.417969 3.582031 8 8 8h64c4.417969 0 8-3.582031 8-8zm0 0" fill="#a58ace"/><path d="m376 416h-327.195312c-26.28125 0-48.296876 20.792969-48.7968755 47.070312-.5078125 26.890626 21.2187495 48.929688 47.9921875 48.929688h320c4.417969 0 8-3.582031 8-8zm0 0" fill="#fff6df"/><path d="m64 496c-26.773438 0-48.5-22.039062-47.992188-48.929688.167969-8.699218 2.703126-16.792968 6.960938-23.734374-13.464844 8.304687-22.640625 22.886718-22.9609375 39.734374-.5078125 26.890626 21.2187495 48.929688 47.9921875 48.929688h320c4.417969 0 8-3.582031 8-8v-8zm0 0" fill="#ffedbf"/><path d="m328 416h-64v55.765625c0 2.363281.925781 4.675781 2.703125 6.230469 2.796875 2.449218 6.777344 2.632812 9.734375.660156l19.5625-13.042969 19.5625 13.042969c2.640625 1.761719 6.191406 1.78125 8.839844.023438 2.3125-1.53125 3.597656-4.265626 3.597656-7.003907zm0 0" fill="#a58ace"/><path d="m320 264v-176c-17.671875 0-32-14.328125-32-32h-136c0 17.671875-14.328125 32-32 32v176c17.671875 0 32 14.328125 32 32h136c0-17.671875 14.328125-32 32-32zm0 0" fill="#f4f0f9"/><path d="m288 303.5h-136c-4.140625 0-7.5-3.359375-7.5-7.5 0-13.507812-10.992188-24.5-24.5-24.5-4.140625 0-7.5-3.359375-7.5-7.5v-176c0-4.140625 3.359375-7.5 7.5-7.5 13.507812 0 24.5-10.992188 24.5-24.5 0-4.140625 3.359375-7.5 7.5-7.5h136c4.144531 0 7.5 3.359375 7.5 7.5 0 13.507812 10.992188 24.5 24.5 24.5 4.144531 0 7.5 3.359375 7.5 7.5v176c0 4.140625-3.355469 7.5-7.5 7.5-13.507812 0-24.5 10.992188-24.5 24.5 0 4.140625-3.355469 7.5-7.5 7.5zm-129.214844-15h122.429688c3.046875-15.777344 15.511718-28.242188 31.285156-31.285156v-162.429688c-15.773438-3.042968-28.238281-15.507812-31.285156-31.285156h-122.429688c-3.042968 15.777344-15.507812 28.242188-31.285156 31.285156v162.429688c15.777344 3.042968 28.242188 15.507812 31.285156 31.285156zm0 0" fill="#e68988"/><path d="m289.515625 210.992188c-1.691406-2.824219-4.9375-4.328126-8.1875-3.78125-3.121094.523437-6.261719.789062-9.328125.789062-30.878906 0-56-25.121094-56-56 0-12.496094 4.039062-24.324219 11.679688-34.207031 2.015624-2.605469 2.226562-6.179688.535156-9.003907-1.691406-2.824218-4.9375-4.324218-8.1875-3.78125-34.78125 5.832032-60.027344 35.6875-60.027344 70.992188 0 39.699219 32.300781 72 72 72 22.453125 0 43.21875-10.207031 56.980469-28.003906 2.011719-2.605469 2.226562-6.179688.535156-9.003906zm0 0" fill="#ffdb7e"/><path d="m248 231.101562c-39.699219 0-72-32.296874-72-72 0-14.9375 4.53125-28.886718 12.378906-40.464843-17.417968 13.214843-28.378906 34.105469-28.378906 57.363281 0 39.699219 32.300781 72 72 72 22.453125 0 43.21875-10.207031 56.980469-28.003906.609375-.789063 1.035156-1.671875 1.308593-2.59375-12.132812 8.847656-26.808593 13.699218-42.289062 13.699218zm0 0" fill="#ffd15e"/><g fill="#eeb0b0"><path d="m320 344h-208c-4.417969 0-8-3.582031-8-8s3.582031-8 8-8h208c4.417969 0 8 3.582031 8 8s-3.582031 8-8 8zm0 0"/><path d="m176 384h-64c-4.417969 0-8-3.582031-8-8s3.582031-8 8-8h64c4.417969 0 8 3.582031 8 8s-3.582031 8-8 8zm0 0"/><path d="m320 384h-112c-4.417969 0-8-3.582031-8-8s3.582031-8 8-8h112c4.417969 0 8 3.582031 8 8s-3.582031 8-8 8zm0 0"/></g></svg>