<svg id="Layer_1" enable-background="new 0 0 512 512" height="512" viewBox="0 0 512 512" width="512" xmlns="http://www.w3.org/2000/svg"><path d="m451 512h-345c-24.853 0-45-20.147-45-45v-422h30c0 8.276 6.724 15 15 15h315c16.569 0 30 13.431 30 30z" fill="#766e6e"/><path d="m256 512h195v-422c0-16.569-13.431-30-30-30h-165z" fill="#5b5555"/><path d="m256 424.937-9.873-8.643c-10.898-9.536-21.27-18.369-31.011-26.675-56.675-48.296-94.116-80.2-94.116-128.862 0-45.278 32.944-80.757 75-80.757 29.795 0 48.691 17.007 60 33.442 11.309-16.435 30.205-33.442 60-33.442 42.056 0 75 35.479 75 80.757 0 48.662-37.441 80.566-94.116 128.862-9.741 8.306-20.112 17.139-31.011 26.675z" fill="#ffe6b3"/><path d="m265.873 416.294c10.898-9.536 21.27-18.369 31.011-26.675 56.675-48.296 94.116-80.2 94.116-128.862 0-45.278-32.944-80.757-75-80.757-29.795 0-48.691 17.007-60 33.442v211.494z" fill="#ffca80"/><path d="m451 90h-345c-24.814 0-45-20.186-45-45s20.186-45 45-45h345z" fill="#d9f2ff"/><path d="m256 0h195v90h-195z" fill="#cdf"/></svg>